<?xml version="1.0" encoding="utf-8"?>
<!-- Generator: Adobe Illustrator 19.1.0, SVG Export Plug-In . SVG Version: 6.00 Build 0)  -->
<svg version="1.1" xmlns="http://www.w3.org/2000/svg" xmlns:xlink="http://www.w3.org/1999/xlink" x="0px" y="0px"
	 viewBox="0 0 71.483 98.29218" enable-background="new 0 0 71.483 98.29218" xml:space="preserve">
<g id="Layer_3">
</g>
<g id="Layer_2">
</g>
<g id="Layer_4">
	<g>
		<path fill="#FFFFFF" stroke="#BCBEC0" stroke-miterlimit="10" d="M64.94992,0.5H25.60463
			c-1.66516,0-3.01505,1.34988-3.01505,3.01505v9.76673c0,4.96336-3.78415,9.00115-8.4365,9.00115H2.09802
			c-0.88256,0-1.59802,0.71546-1.59802,1.59802v67.47367c0,3.55539,2.70113,6.43757,6.03318,6.43757h58.41674
			c3.33195,0,6.03308-2.88218,6.03308-6.43757V6.93757C70.983,3.38218,68.28188,0.5,64.94992,0.5z"/>
		<path fill="#FFFFFF" stroke="#BCBEC0" stroke-miterlimit="10" d="M18.79408,14.74084V1.9599l-2.44145,2.31929
			C1.51015,18.61504,18.79408,1.9599,1.51015,18.44849v0.16655h13.65309C17.1685,18.61504,18.79408,16.8805,18.79408,14.74084z"/>
	</g>
	<rect x="6.47788" y="26.57949" fill="#BCBEC0" width="58.37432" height="64.85724"/>
	<rect x="15.77704" y="35.1215" fill="#F58238" width="16.96797" height="4.41027"/>
	<rect x="32.74501" y="26.61736" fill="#F58238" width="16.96797" height="4.23475"/>
	<rect x="32.74501" y="39.53177" fill="#F58238" width="16.96797" height="4.41027"/>
	
		<line fill="none" stroke="#FFFFFF" stroke-width="0.5" stroke-miterlimit="10" x1="15.77704" y1="91.43937" x2="15.77704" y2="26.57949"/>
	<g>
		
			<line fill="none" stroke="#FFFFFF" stroke-width="0.5" stroke-miterlimit="10" x1="6.47788" y1="30.75435" x2="64.8522" y2="30.75435"/>
		
			<line fill="none" stroke="#FFFFFF" stroke-width="0.5" stroke-miterlimit="10" x1="6.47788" y1="35.12154" x2="64.8522" y2="35.12154"/>
		
			<line fill="none" stroke="#FFFFFF" stroke-width="0.5" stroke-miterlimit="10" x1="6.47788" y1="39.48873" x2="64.8522" y2="39.48873"/>
		
			<line fill="none" stroke="#FFFFFF" stroke-width="0.5" stroke-miterlimit="10" x1="6.47788" y1="43.85592" x2="64.8522" y2="43.85592"/>
		
			<line fill="none" stroke="#FFFFFF" stroke-width="0.5" stroke-miterlimit="10" x1="6.47788" y1="48.22312" x2="64.8522" y2="48.22312"/>
		
			<line fill="none" stroke="#FFFFFF" stroke-width="0.5" stroke-miterlimit="10" x1="6.47788" y1="52.59031" x2="64.8522" y2="52.59031"/>
		
			<line fill="none" stroke="#FFFFFF" stroke-width="0.5" stroke-miterlimit="10" x1="6.47788" y1="56.9575" x2="64.8522" y2="56.9575"/>
		
			<line fill="none" stroke="#FFFFFF" stroke-width="0.5" stroke-miterlimit="10" x1="6.47788" y1="61.3247" x2="64.8522" y2="61.3247"/>
		
			<line fill="none" stroke="#FFFFFF" stroke-width="0.5" stroke-miterlimit="10" x1="6.47788" y1="65.69189" x2="64.8522" y2="65.69189"/>
		
			<line fill="none" stroke="#FFFFFF" stroke-width="0.5" stroke-miterlimit="10" x1="6.47788" y1="70.05908" x2="64.8522" y2="70.05908"/>
		
			<line fill="none" stroke="#FFFFFF" stroke-width="0.5" stroke-miterlimit="10" x1="6.47788" y1="74.42627" x2="64.8522" y2="74.42627"/>
		
			<line fill="none" stroke="#FFFFFF" stroke-width="0.5" stroke-miterlimit="10" x1="6.47788" y1="78.79346" x2="64.8522" y2="78.79346"/>
		
			<line fill="none" stroke="#FFFFFF" stroke-width="0.5" stroke-miterlimit="10" x1="6.47788" y1="83.16066" x2="64.8522" y2="83.16066"/>
		
			<line fill="none" stroke="#FFFFFF" stroke-width="0.5" stroke-miterlimit="10" x1="6.47788" y1="87.52785" x2="64.8522" y2="87.52785"/>
	</g>
	
		<line fill="none" stroke="#FFFFFF" stroke-width="0.5" stroke-miterlimit="10" x1="32.5054" y1="91.43937" x2="32.5054" y2="26.57949"/>
	
		<line fill="none" stroke="#FFFFFF" stroke-width="0.5" stroke-miterlimit="10" x1="49.90406" y1="91.47723" x2="49.90406" y2="26.61736"/>
	<rect x="5.715" y="48.35231" fill="#FFFFFF" width="62.5" height="46.06465"/>
	<g>
		<path fill="#F58320" d="M27.14552,9.30071c0.42969-0.08789,1.04492-0.13672,1.63086-0.13672
			c0.9082,0,1.49414,0.16602,1.9043,0.53711c0.33203,0.29297,0.51758,0.74219,0.51758,1.25
			c0,0.86914-0.54688,1.44531-1.24023,1.67969v0.0293c0.50781,0.17578,0.81055,0.64453,0.9668,1.32813
			c0.21484,0.91797,0.37109,1.55273,0.50781,1.80664h-0.87891c-0.10742-0.18555-0.25391-0.75195-0.43945-1.57227
			c-0.19531-0.9082-0.54688-1.25-1.31836-1.2793h-0.80078v2.85156h-0.84961V9.30071z M27.99513,12.29876h0.86914
			c0.9082,0,1.48438-0.49805,1.48438-1.25c0-0.84961-0.61523-1.2207-1.51367-1.23047c-0.41016,0-0.70313,0.03906-0.83984,0.07813
			V12.29876z"/>
		<path fill="#F58320" d="M33.13185,13.58782c0.01953,1.16211,0.76172,1.64063,1.62109,1.64063
			c0.61523,0,0.98633-0.10742,1.30859-0.24414l0.14648,0.61523c-0.30273,0.13672-0.82031,0.29297-1.57227,0.29297
			c-1.45508,0-2.32422-0.95703-2.32422-2.38281s0.83984-2.54883,2.2168-2.54883c1.54297,0,1.95313,1.35742,1.95313,2.22656
			c0,0.17578-0.01953,0.3125-0.0293,0.40039H33.13185z M35.65138,12.97259c0.00977-0.54688-0.22461-1.39648-1.19141-1.39648
			c-0.86914,0-1.25,0.80078-1.31836,1.39648H35.65138z"/>
		<path fill="#F58320" d="M37.79005,12.61126c0-0.60547-0.01953-1.09375-0.03906-1.54297h0.77148l0.03906,0.81055h0.01953
			c0.35156-0.57617,0.9082-0.91797,1.67969-0.91797c1.14258,0,2.00195,0.9668,2.00195,2.40234
			c0,1.69922-1.03516,2.53906-2.14844,2.53906c-0.625,0-1.17188-0.27344-1.45508-0.74219h-0.01953v2.56836h-0.84961V12.61126z
			 M38.63966,13.87103c0,0.12695,0.01953,0.24414,0.03906,0.35156c0.15625,0.5957,0.67383,1.00586,1.28906,1.00586
			c0.9082,0,1.43555-0.74219,1.43555-1.82617c0-0.94727-0.49805-1.75781-1.40625-1.75781
			c-0.58594,0-1.13281,0.41992-1.29883,1.06445c-0.0293,0.10742-0.05859,0.23438-0.05859,0.35156V13.87103z"/>
		<path fill="#F58320" d="M47.86818,13.39251c0,1.74805-1.21094,2.50977-2.35352,2.50977c-1.2793,0-2.26563-0.9375-2.26563-2.43164
			c0-1.58203,1.03516-2.50977,2.34375-2.50977C46.95021,10.96087,47.86818,11.9472,47.86818,13.39251z M44.11818,13.44134
			c0,1.03516,0.5957,1.81641,1.43555,1.81641c0.82031,0,1.43555-0.77148,1.43555-1.83594c0-0.80078-0.40039-1.81641-1.41602-1.81641
			S44.11818,12.5429,44.11818,13.44134z"/>
		<path fill="#F58320" d="M49.19532,12.5429c0-0.55664-0.00977-1.03516-0.03906-1.47461h0.75195l0.0293,0.92773h0.03906
			c0.21484-0.63477,0.73242-1.03516,1.30859-1.03516c0.09766,0,0.16602,0.00977,0.24414,0.0293v0.81055
			c-0.08789-0.01953-0.17578-0.0293-0.29297-0.0293c-0.60547,0-1.03516,0.45898-1.15234,1.10352
			c-0.01953,0.11719-0.03906,0.25391-0.03906,0.40039v2.51953h-0.84961V12.5429z"/>
		<path fill="#F58320" d="M53.90236,9.71087v1.35742h1.23047v0.6543h-1.23047v2.54883c0,0.58594,0.16602,0.91797,0.64453,0.91797
			c0.22461,0,0.39063-0.0293,0.49805-0.05859l0.03906,0.64453c-0.16602,0.06836-0.42969,0.11719-0.76172,0.11719
			c-0.40039,0-0.72266-0.12695-0.92773-0.36133c-0.24414-0.25391-0.33203-0.67383-0.33203-1.23047v-2.57813h-0.73242v-0.6543
			h0.73242V9.93548L53.90236,9.71087z"/>
		<path fill="#F58320" d="M56.22657,14.91595c0.25391,0.16602,0.70313,0.3418,1.13281,0.3418
			c0.625,0,0.91797-0.3125,0.91797-0.70313c0-0.41016-0.24414-0.63477-0.87891-0.86914c-0.84961-0.30273-1.25-0.77148-1.25-1.33789
			c0-0.76172,0.61523-1.38672,1.63086-1.38672c0.47852,0,0.89844,0.13672,1.16211,0.29297l-0.21484,0.625
			c-0.18555-0.11719-0.52734-0.27344-0.9668-0.27344c-0.50781,0-0.79102,0.29297-0.79102,0.64453
			c0,0.39063,0.2832,0.56641,0.89844,0.80078c0.82031,0.3125,1.24023,0.72266,1.24023,1.42578
			c0,0.83008-0.64453,1.41602-1.76758,1.41602c-0.51758,0-0.99609-0.12695-1.32813-0.32227L56.22657,14.91595z"/>
	</g>
	<path fill="#F58238" d="M19.57234,62.62903l14.48816,9.02585L18.78898,79.8789c-2.7219-5.20551-2.71143-11.6675,0.6193-17.01394
		C19.4595,62.78273,19.51992,62.71011,19.57234,62.62903z"/>
	<g>
		<path fill="#BCBEC0" d="M25.57996,63.21911c5.06623-7.83937,15.49514-10.20339,23.44773-5.24907
			c8.03487,5.00557,10.49061,15.57696,5.48503,23.61183S38.93577,92.07248,30.9009,87.0669
			c-2.68917-1.6753-4.73638-3.98037-6.10022-6.60017l15.2674-8.22181L25.57996,63.21911z"/>
		<path fill="#BCBEC0" d="M24.78482,80.44365c0.00073-0.0005,0.00148-0.00076,0.00221-0.00125
			c0.00431,0.00824,0.00934,0.01609,0.01364,0.02434l-0.00413,0.0022C24.79224,80.4607,24.78913,80.45189,24.78482,80.44365z"/>
	</g>
	<g>
	</g>
	<g>
	</g>
	<g>
	</g>
	<g>
	</g>
	<g>
	</g>
	<g>
	</g>
</g>
</svg>
